<?xml version="1.0" encoding="utf-8"?>
<!-- Generator: Adobe Illustrator 17.0.0, SVG Export Plug-In . SVG Version: 6.00 Build 0)  -->
<!DOCTYPE svg PUBLIC "-//W3C//DTD SVG 1.1//EN" "http://www.w3.org/Graphics/SVG/1.1/DTD/svg11.dtd">
<svg version="1.1" id="Capa_1" xmlns="http://www.w3.org/2000/svg" xmlns:xlink="http://www.w3.org/1999/xlink" x="0px" y="0px"
	 width="50px" height="50px" viewBox="0 0 50 50" enable-background="new 0 0 50 50" xml:space="preserve">
<path fill-rule="evenodd" clip-rule="evenodd" fill="#FFFFFF" d="M47.583,13c0-5.805-4.695-10.5-10.5-10.5h-24
	c-5.805,0-10.5,4.695-10.5,10.5v24c0,5.805,4.695,10.5,10.5,10.5h11.97V32.515l-4.47-0.015V25l4.485,0.015L25.083,19
	c0-2.34,1.68-6,6-6h0.57c6.975,0,6.855,0.015,6.855,0.015v7.5h-4.56c0,0-1.44,0.015-1.44,1.5v3L37.083,25v7.5h-4.5v15h4.5
	c5.805,0,10.5-4.695,10.5-10.5V13z M35.583,31v-4.5l-3.075,0.015h-1.455v-1.5v-3c0-1.92,1.485-2.985,2.865-3h3.15V14.5h-5.985
	c-2.385,0-4.5,2.07-4.5,4.5v7.5h-4.5V31h4.5l-0.09,16.5h4.59V31H35.583z M37.083,49h-24c-6.63,0-12-5.37-12-12V13
	c0-6.63,5.37-12,12-12h24c6.63,0,12,5.37,12,12v24C49.083,43.63,43.713,49,37.083,49z"/>
</svg>
