<?xml version="1.0" encoding="utf-8"?>
<!-- Generator: Adobe Illustrator 17.0.0, SVG Export Plug-In . SVG Version: 6.00 Build 0)  -->
<!DOCTYPE svg PUBLIC "-//W3C//DTD SVG 1.1//EN" "http://www.w3.org/Graphics/SVG/1.1/DTD/svg11.dtd">
<svg version="1.1" id="Capa_1" xmlns="http://www.w3.org/2000/svg" xmlns:xlink="http://www.w3.org/1999/xlink" x="0px" y="0px"
	 width="50px" height="50px" viewBox="0 0 50 50" enable-background="new 0 0 50 50" xml:space="preserve">
<path fill="#FFFFFF" d="M24.717,1.684c-12.858,0-23.283,10.696-23.283,23.875c0,10.55,6.673,19.489,15.924,22.649
	c0.146,0.031,0.27,0.042,0.395,0.042c0.863,0,1.195-0.634,1.195-1.185c0-0.572-0.021-2.068-0.031-4.064
	c-0.873,0.197-1.653,0.281-2.349,0.281c-4.48,0-5.499-3.482-5.499-3.482c-1.06-2.754-2.588-3.492-2.588-3.492
	c-2.027-1.424-0.01-1.466,0.146-1.466c0.01,0,0.01,0,0.01,0c2.339,0.208,3.565,2.474,3.565,2.474
	c1.164,2.037,2.723,2.609,4.116,2.609c1.091,0,2.079-0.353,2.661-0.624c0.208-1.538,0.811-2.588,1.476-3.191
	c-5.166-0.603-10.602-2.651-10.602-11.797c0-2.609,0.904-4.74,2.391-6.403c-0.239-0.603-1.039-3.035,0.229-6.32
	c0,0,0.166-0.052,0.52-0.052c0.842,0,2.744,0.322,5.883,2.505c1.861-0.53,3.846-0.79,5.831-0.8c1.975,0.01,3.971,0.27,5.831,0.8
	c3.139-2.183,5.041-2.505,5.883-2.505c0.353,0,0.52,0.052,0.52,0.052c1.268,3.285,0.468,5.717,0.229,6.32
	c1.486,1.673,2.391,3.804,2.391,6.403c0,9.168-5.447,11.184-10.633,11.777c0.832,0.738,1.58,2.193,1.58,4.418
	c0,3.191-0.031,5.769-0.031,6.548c0,0.561,0.322,1.195,1.185,1.195c0.125,0,0.27-0.01,0.416-0.042
	C41.337,45.049,48,36.099,48,25.559C48,12.38,37.575,1.684,24.717,1.684z M16.568,44.934c0.229,0,0.457-0.01,0.696-0.021
	c0,0.291,0,0.572,0.01,0.821c0,0.249,0,0.478,0.01,0.676c-1.621-0.603-3.149-1.403-4.584-2.391
	C13.72,44.57,14.998,44.934,16.568,44.934z M17.753,37.357c-0.083,0.229-0.156,0.468-0.218,0.717
	c-0.353,0.104-0.78,0.187-1.216,0.187c-1.133,0-1.975-0.561-2.661-1.757c-0.249-0.478-0.707-1.112-1.341-1.694
	C14.063,36.276,16.09,36.983,17.753,37.357z M37.502,43.479c-1.642,1.237-3.43,2.214-5.301,2.931c0-0.197,0-0.426,0-0.676
	c0-1.237,0-3.097,0-5.239c0-1.289-0.218-2.339-0.52-3.17c3.867-0.863,9.563-3.503,9.563-13.034c0-2.557-0.738-4.833-2.204-6.767
	c0.322-1.341,0.572-3.7-0.53-6.548l-0.281-0.738l-0.748-0.249c-0.156-0.052-0.499-0.135-1.039-0.135
	c-1.195,0-3.212,0.426-6.185,2.37c-1.767-0.437-3.617-0.665-5.519-0.665h-0.021h-0.01c-1.902,0-3.763,0.229-5.519,0.665
	c-2.973-1.944-4.989-2.37-6.185-2.37c-0.54,0-0.884,0.094-1.039,0.146l-0.748,0.249l-0.281,0.738
	c-1.102,2.858-0.852,5.218-0.53,6.548c-1.466,1.944-2.204,4.22-2.204,6.767c0,5.156,1.663,8.305,3.804,10.238
	c-0.842-0.686-1.933-1.258-3.243-1.351H8.71H8.658H8.627c-1.362,0-2.318,0.561-2.619,1.528c-0.489,1.538,1.019,2.599,1.518,2.952
	l0.052,0.062l0.156,0.062c0.166,0.104,1.05,0.728,1.757,2.547c0.208,0.644,0.655,1.507,1.414,2.308
	c-1.362-1.164-2.578-2.495-3.628-3.96c-2.734-3.825-4.178-8.367-4.178-13.128c0-3.004,0.572-5.914,1.705-8.658
	c1.091-2.651,2.651-5.02,4.646-7.058c1.985-2.037,4.303-3.638,6.871-4.75c2.661-1.154,5.488-1.746,8.399-1.746
	s5.738,0.582,8.399,1.736c2.578,1.112,4.885,2.713,6.871,4.75s3.555,4.418,4.646,7.058c1.133,2.744,1.705,5.654,1.705,8.658
	c0,4.761-1.434,9.303-4.168,13.128C40.859,40.517,39.29,42.128,37.502,43.479z"/>
</svg>
