<?xml version="1.0" encoding="utf-8"?>
<!-- Generator: Adobe Illustrator 17.0.0, SVG Export Plug-In . SVG Version: 6.00 Build 0)  -->
<!DOCTYPE svg PUBLIC "-//W3C//DTD SVG 1.1//EN" "http://www.w3.org/Graphics/SVG/1.1/DTD/svg11.dtd">
<svg version="1.1" id="Capa_1" xmlns="http://www.w3.org/2000/svg" xmlns:xlink="http://www.w3.org/1999/xlink" x="0px" y="0px"
	 width="50px" height="50px" viewBox="0 0 50 50" enable-background="new 0 0 50 50" xml:space="preserve">
<path fill="#FFFFFF" d="M33.71,5.118c-5.917,0-10.742,5.041-10.742,11.255v0.347c-6.065-0.859-11.668-4.148-15.585-9.205
	C7.085,7.102,6.606,6.87,6.093,6.87L5.961,6.887C5.416,6.92,4.92,7.234,4.655,7.73c-0.942,1.702-1.438,3.636-1.438,5.619
	c0,1.834,0.43,3.603,1.206,5.173c-0.149,0.033-0.297,0.099-0.446,0.182c-0.496,0.281-0.826,0.81-0.826,1.405v0.149
	c0,3.305,1.388,6.346,3.636,8.445l-0.033,0.017c-0.38,0.43-0.512,1.041-0.347,1.603c0.959,3.157,3.173,5.652,5.966,6.908
	c-2.215,1.14-4.661,1.719-7.189,1.719c-0.661,0-1.322-0.033-1.983-0.116l-0.198-0.017c-0.678,0-1.289,0.43-1.537,1.074
	c-0.264,0.727,0,1.52,0.628,1.95c4.446,3.008,9.586,4.594,14.858,4.594c10.379,0,16.857-5.156,20.477-9.486
	c4.479-5.355,7.057-12.461,7.057-19.469v-0.463c1.653-1.372,3.074-3.008,4.247-4.859c0.397-0.611,0.331-1.421-0.149-1.983
	c-0.314-0.364-0.777-0.562-1.24-0.562c-0.099,0-0.198,0.017-0.314,0.033c0.264-0.545,0.496-1.107,0.661-1.686
	c0.198-0.661-0.017-1.372-0.562-1.801c-0.297-0.231-0.645-0.347-1.008-0.347c-0.297,0-0.595,0.083-0.859,0.264
	c-1.372,0.859-2.843,1.487-4.396,1.901C38.915,6.143,36.354,5.118,33.71,5.118z M33.71,6.771c2.611,0,4.975,1.173,6.644,3.024
	c2.066-0.43,4.016-1.223,5.768-2.33c-0.678,2.248-2.115,4.132-3.999,5.322c1.851-0.231,3.603-0.76,5.222-1.52
	c-1.206,1.934-2.76,3.619-4.528,4.975c0.017,0.413,0.017,0.826,0.017,1.24c0,12.676-9.139,27.302-25.881,27.302
	c-5.14,0-9.916-1.587-13.949-4.313c0.711,0.083,1.438,0.132,2.182,0.132c4.247,0,8.181-1.537,11.288-4.099
	c-3.983-0.083-7.338-2.859-8.495-6.677c0.562,0.116,1.124,0.182,1.719,0.182c0.826,0,1.62-0.116,2.396-0.347
	c-4.165-0.876-7.305-4.76-7.305-9.404v-0.116c1.223,0.711,2.628,1.14,4.115,1.19c-2.429-1.719-4.049-4.644-4.049-7.982
	c0-1.752,0.463-3.405,1.24-4.826c4.495,5.817,11.189,9.635,18.758,10.032c-0.165-0.711-0.248-1.438-0.248-2.182
	C24.603,11.068,28.685,6.771,33.71,6.771z"/>
</svg>
