<?xml version="1.0" encoding="utf-8"?>
<!-- Generator: Adobe Illustrator 17.0.0, SVG Export Plug-In . SVG Version: 6.00 Build 0)  -->
<!DOCTYPE svg PUBLIC "-//W3C//DTD SVG 1.1//EN" "http://www.w3.org/Graphics/SVG/1.1/DTD/svg11.dtd">
<svg version="1.1" id="Capa_1" xmlns="http://www.w3.org/2000/svg" xmlns:xlink="http://www.w3.org/1999/xlink" x="0px" y="0px"
	 width="175px" height="50px" viewBox="0 0 175 50" enable-background="new 0 0 175 50" xml:space="preserve">
<circle fill="none" stroke="#FFFFFF" stroke-width="3" stroke-miterlimit="10" cx="22.587" cy="25.611" r="21.474"/>
<g>
	<path fill="#FFFFFF" d="M9.415,30.629L6.991,21.63l-1.133-0.29v-0.798l4.064-0.073v0.871L8.66,21.63l1.553,6.576l2.395-7.664
		l1.379-0.073l2.352,7.896l1.8-6.735l-1.321-0.29v-0.798l3.919-0.073v0.871l-1.146,0.29l-2.554,8.999H15.44l-2.163-8.244l-0.45,1.64
		l-1.96,6.603L9.415,30.629L9.415,30.629z"/>
	<path fill="#FFFFFF" d="M22.841,24.75h1.161c0.667,0,1.197-0.147,1.589-0.443c0.392-0.295,0.588-0.694,0.588-1.197
		c0-0.503-0.169-0.888-0.508-1.154c-0.339-0.266-0.798-0.399-1.38-0.399c-0.522,0-0.986,0.073-1.393,0.218l-0.203,0.073
		l-0.145,1.306h-1.161l-0.073-2.25c1.045-0.386,2.076-0.581,3.092-0.581c1.006,0,1.807,0.205,2.403,0.617
		c0.595,0.412,0.893,1.052,0.893,1.924c0,1.297-0.63,2.104-1.887,2.424c0.648,0.136,1.161,0.419,1.539,0.849
		c0.378,0.431,0.566,0.922,0.566,1.472c0,0.562-0.111,1.043-0.334,1.445c-0.223,0.401-0.515,0.728-0.878,0.98
		c-0.364,0.251-0.775,0.437-1.234,0.559c-0.46,0.121-0.927,0.182-1.401,0.182c-0.281,0-0.557-0.017-0.827-0.051
		c-0.271-0.034-0.522-0.078-0.755-0.131s-0.44-0.114-0.624-0.182s-0.334-0.13-0.45-0.188L21.1,30.048l0.436-1.161
		c0.823,0.436,1.693,0.654,2.613,0.654c0.667,0,1.197-0.16,1.589-0.48c0.392-0.319,0.589-0.769,0.589-1.35s-0.216-1.025-0.646-1.335
		c-0.43-0.31-1.014-0.464-1.749-0.464h-1.088v-1.16h-0.002V24.75H22.841z"/>
	<path fill="#FFFFFF" d="M29.663,30.629v-0.871l1.234-0.29V21.63l-1.234-0.29v-0.798l2.758-0.073h1.815
		c0.716,0,1.357,0.109,1.924,0.327s1.045,0.537,1.437,0.958c0.392,0.421,0.692,0.939,0.9,1.553c0.208,0.615,0.312,1.319,0.312,2.112
		s-0.114,1.509-0.341,2.148c-0.228,0.639-0.549,1.186-0.965,1.64s-0.92,0.806-1.509,1.052c-0.59,0.246-1.249,0.37-1.974,0.37
		L29.663,30.629L29.663,30.629z M32.421,29.468h1.669c0.958,0,1.706-0.328,2.242-0.987c0.537-0.658,0.806-1.649,0.806-2.976
		c0-1.336-0.261-2.315-0.784-2.939c-0.522-0.624-1.253-0.936-2.192-0.936H32.42C32.421,21.629,32.421,29.468,32.421,29.468z"/>
</g>
<g>
	<path fill="#FFFFFF" d="M56.647,16.459h1.501l2.24,5.646l2.263-5.646h1.479l-2.778,6.788l3.047,7.191l5.758-14.091h1.703
		l-6.721,15.906H63.75l-3.338-7.865l-3.36,7.863h-1.389l-6.698-15.905h1.658l5.78,14.091l3.024-7.191L56.647,16.459z"/>
	<path fill="#FFFFFF" d="M78.87,32.477c-0.851,0-1.635-0.161-2.352-0.482c-0.717-0.321-1.336-0.761-1.859-1.322
		c-0.523-0.56-0.93-1.206-1.221-1.937s-0.436-1.516-0.436-2.352c0-0.821,0.145-1.594,0.436-2.318
		c0.291-0.725,0.698-1.359,1.221-1.904c0.522-0.545,1.139-0.978,1.849-1.299c0.709-0.321,1.489-0.482,2.341-0.482
		c0.851,0,1.632,0.161,2.341,0.482s1.318,0.758,1.825,1.311s0.904,1.187,1.187,1.904c0.284,0.717,0.426,1.479,0.426,2.285
		c0,0.12-0.004,0.239-0.011,0.358c-0.008,0.12-0.019,0.202-0.034,0.246h-9.969c0.046,0.627,0.191,1.206,0.436,1.736
		c0.246,0.531,0.561,0.99,0.942,1.378c0.38,0.388,0.821,0.691,1.322,0.907c0.5,0.217,1.034,0.325,1.601,0.325
		c0.388,0,0.769-0.052,1.143-0.157c0.374-0.105,0.718-0.246,1.031-0.426c0.314-0.178,0.594-0.399,0.84-0.66s0.436-0.548,0.571-0.861
		l1.322,0.358c-0.178,0.434-0.433,0.825-0.761,1.177c-0.329,0.351-0.71,0.657-1.143,0.918c-0.433,0.262-0.912,0.464-1.433,0.605
		C79.96,32.406,79.423,32.477,78.87,32.477z M83.172,25.801c-0.045-0.627-0.19-1.198-0.436-1.713
		c-0.246-0.515-0.56-0.959-0.941-1.333c-0.381-0.373-0.825-0.664-1.333-0.874c-0.508-0.209-1.046-0.314-1.613-0.314
		c-0.568,0-1.106,0.104-1.613,0.314c-0.508,0.209-0.952,0.501-1.333,0.874s-0.688,0.821-0.919,1.344
		c-0.232,0.523-0.37,1.091-0.414,1.703L83.172,25.801L83.172,25.801z"/>
	<path fill="#FFFFFF" d="M92.625,32.477c-0.912,0-1.754-0.232-2.531-0.694c-0.777-0.463-1.382-1.06-1.815-1.792v2.263h-1.367V15.899
		h1.523v7.124c0.523-0.791,1.149-1.43,1.883-1.915c0.731-0.485,1.591-0.728,2.576-0.728c0.807,0,1.537,0.172,2.195,0.515
		c0.657,0.344,1.213,0.803,1.669,1.378c0.456,0.576,0.807,1.224,1.053,1.949s0.37,1.467,0.37,2.229c0,0.822-0.142,1.599-0.426,2.33
		c-0.284,0.732-0.676,1.37-1.176,1.915c-0.501,0.545-1.091,0.979-1.77,1.299C94.13,32.316,93.401,32.477,92.625,32.477z
		 M92.266,31.132c0.642,0,1.228-0.131,1.758-0.392c0.53-0.261,0.986-0.613,1.367-1.053c0.382-0.44,0.679-0.942,0.896-1.501
		c0.216-0.56,0.324-1.139,0.324-1.737c0-0.612-0.1-1.202-0.303-1.77c-0.202-0.568-0.485-1.071-0.851-1.513
		c-0.367-0.44-0.803-0.792-1.31-1.053c-0.508-0.261-1.068-0.392-1.681-0.392c-0.463,0-0.895,0.079-1.299,0.235
		c-0.402,0.157-0.777,0.37-1.12,0.639s-0.654,0.579-0.929,0.93c-0.277,0.351-0.504,0.721-0.684,1.109v3.629
		c0.059,0.402,0.22,0.781,0.482,1.132c0.261,0.351,0.579,0.654,0.952,0.907c0.372,0.255,0.769,0.456,1.187,0.605
		C91.475,31.058,91.878,31.132,92.266,31.132z"/>
	<path fill="#FFFFFF" d="M106.829,32.253V16.347h5.377c1.269,0,2.382,0.209,3.337,0.627c0.956,0.419,1.751,0.986,2.386,1.703
		c0.634,0.717,1.109,1.557,1.423,2.521c0.313,0.963,0.47,1.991,0.47,3.08c0,1.21-0.178,2.304-0.537,3.282
		c-0.359,0.98-0.867,1.815-1.524,2.509c-0.657,0.694-1.456,1.233-2.397,1.614s-1.994,0.571-3.159,0.571
		C112.205,32.253,106.829,32.253,106.829,32.253z M118.254,24.276c0-0.956-0.135-1.833-0.403-2.632
		c-0.269-0.799-0.66-1.49-1.176-2.073c-0.515-0.582-1.146-1.034-1.893-1.355c-0.747-0.321-1.606-0.482-2.576-0.482h-3.831v13.128
		h3.831c0.985,0,1.855-0.168,2.61-0.504c0.755-0.336,1.385-0.798,1.893-1.388c0.507-0.59,0.891-1.285,1.153-2.083
		C118.123,26.088,118.254,25.218,118.254,24.276z"/>
	<path fill="#FFFFFF" d="M127.64,32.477c-0.851,0-1.635-0.161-2.352-0.482c-0.717-0.321-1.336-0.761-1.859-1.322
		c-0.524-0.56-0.93-1.206-1.221-1.937s-0.436-1.516-0.436-2.352c0-0.821,0.145-1.594,0.436-2.318
		c0.291-0.725,0.698-1.359,1.221-1.904c0.522-0.545,1.139-0.978,1.849-1.299c0.709-0.321,1.489-0.482,2.341-0.482
		c0.851,0,1.632,0.161,2.341,0.482c0.709,0.321,1.318,0.758,1.825,1.311s0.904,1.187,1.187,1.904
		c0.284,0.717,0.426,1.479,0.426,2.285c0,0.12-0.004,0.239-0.011,0.358c-0.008,0.12-0.019,0.202-0.034,0.246h-9.969
		c0.046,0.627,0.191,1.206,0.436,1.736c0.246,0.531,0.561,0.99,0.942,1.378c0.38,0.388,0.821,0.691,1.322,0.907
		c0.5,0.217,1.034,0.325,1.601,0.325c0.388,0,0.769-0.052,1.143-0.157s0.718-0.246,1.031-0.426c0.314-0.178,0.594-0.399,0.84-0.66
		s0.436-0.548,0.571-0.861l1.322,0.358c-0.178,0.434-0.433,0.825-0.761,1.177c-0.329,0.351-0.71,0.657-1.143,0.918
		c-0.433,0.262-0.912,0.464-1.433,0.605C128.731,32.406,128.194,32.477,127.64,32.477z M131.943,25.801
		c-0.045-0.627-0.19-1.198-0.436-1.713s-0.56-0.959-0.941-1.333c-0.381-0.373-0.825-0.664-1.333-0.874
		c-0.508-0.209-1.046-0.314-1.613-0.314c-0.568,0-1.106,0.104-1.613,0.314c-0.508,0.209-0.952,0.501-1.333,0.874
		s-0.688,0.821-0.919,1.344c-0.232,0.523-0.37,1.091-0.414,1.703L131.943,25.801L131.943,25.801z"/>
	<path fill="#FFFFFF" d="M139.604,32.477c-0.912,0-1.8-0.149-2.666-0.448c-0.867-0.299-1.613-0.731-2.24-1.3l0.694-1.031
		c0.657,0.538,1.325,0.942,2.005,1.21c0.679,0.269,1.407,0.403,2.184,0.403c0.941,0,1.691-0.191,2.251-0.571
		c0.561-0.382,0.84-0.922,0.84-1.625c0-0.328-0.075-0.6-0.224-0.818c-0.149-0.216-0.37-0.406-0.66-0.57
		c-0.29-0.165-0.657-0.31-1.098-0.437c-0.44-0.127-0.952-0.257-1.534-0.392c-0.672-0.164-1.255-0.328-1.748-0.492
		c-0.493-0.165-0.9-0.351-1.221-0.56s-0.56-0.467-0.717-0.773s-0.236-0.691-0.236-1.154c0-0.582,0.115-1.098,0.347-1.546
		s0.545-0.818,0.941-1.109c0.396-0.291,0.859-0.511,1.39-0.66c0.53-0.149,1.094-0.224,1.691-0.224c0.895,0,1.71,0.145,2.441,0.436
		c0.732,0.291,1.323,0.676,1.77,1.154l-0.739,0.896c-0.433-0.448-0.959-0.784-1.579-1.008c-0.62-0.224-1.266-0.336-1.938-0.336
		c-0.402,0-0.776,0.042-1.12,0.124c-0.343,0.082-0.646,0.212-0.907,0.392c-0.262,0.179-0.467,0.407-0.616,0.684
		s-0.224,0.601-0.224,0.974c0,0.314,0.052,0.568,0.157,0.762c0.104,0.194,0.276,0.362,0.515,0.504
		c0.239,0.142,0.541,0.269,0.908,0.381c0.366,0.112,0.81,0.228,1.333,0.347c0.746,0.179,1.403,0.358,1.971,0.538
		c0.567,0.179,1.042,0.389,1.423,0.628c0.38,0.239,0.667,0.53,0.862,0.874c0.194,0.343,0.291,0.761,0.291,1.254
		c0,1.076-0.411,1.927-1.232,2.555C142.098,32.162,140.993,32.477,139.604,32.477z"/>
	<path fill="#FFFFFF" d="M146.594,18.139v-2.24h1.523v2.24H146.594z M146.594,32.253V20.581h1.523v11.672H146.594z"/>
	<path fill="#FFFFFF" d="M156.114,32.409c-0.807,0-1.543-0.168-2.206-0.504c-0.665-0.337-1.24-0.78-1.725-1.333
		c-0.486-0.553-0.862-1.187-1.132-1.905c-0.269-0.717-0.402-1.456-0.402-2.218c0-0.807,0.131-1.579,0.392-2.318
		c0.261-0.739,0.63-1.385,1.109-1.937c0.478-0.552,1.049-0.993,1.714-1.322c0.665-0.328,1.401-0.493,2.206-0.493
		c1,0,1.867,0.25,2.599,0.751s1.359,1.131,1.882,1.893v-2.442h1.367v11.717c0,0.806-0.153,1.52-0.46,2.14
		c-0.306,0.62-0.717,1.139-1.232,1.557s-1.124,0.732-1.825,0.941c-0.702,0.209-1.441,0.314-2.218,0.314
		c-1.33,0-2.405-0.239-3.226-0.717s-1.487-1.12-1.994-1.927l0.941-0.739c0.463,0.747,1.075,1.296,1.837,1.647
		c0.762,0.351,1.575,0.527,2.442,0.527c0.567,0,1.109-0.079,1.625-0.236c0.515-0.157,0.963-0.389,1.343-0.694
		c0.381-0.306,0.684-0.694,0.908-1.165s0.337-1.019,0.337-1.647V29.99c-0.464,0.748-1.079,1.336-1.849,1.771
		C157.775,32.193,156.965,32.409,156.114,32.409z M156.54,31.132c0.448,0,0.888-0.082,1.322-0.246
		c0.433-0.164,0.825-0.384,1.176-0.66s0.646-0.586,0.885-0.929c0.239-0.343,0.396-0.694,0.47-1.053v-3.607
		c-0.165-0.418-0.392-0.807-0.684-1.165c-0.291-0.358-0.616-0.664-0.975-0.919c-0.358-0.254-0.743-0.455-1.153-0.605
		c-0.411-0.149-0.825-0.224-1.243-0.224c-0.658,0-1.24,0.138-1.748,0.415s-0.941,0.638-1.299,1.086
		c-0.358,0.448-0.631,0.956-0.818,1.523c-0.187,0.568-0.28,1.143-0.28,1.725c0,0.627,0.112,1.224,0.336,1.792
		s0.531,1.064,0.919,1.49c0.388,0.426,0.847,0.761,1.377,1.008C155.355,31.01,155.927,31.132,156.54,31.132z"/>
	<path fill="#FFFFFF" d="M175,32.253h-1.524v-6.519c0-1.389-0.202-2.397-0.604-3.024c-0.403-0.627-1.031-0.941-1.883-0.941
		c-0.448,0-0.896,0.082-1.344,0.246c-0.448,0.165-0.866,0.396-1.255,0.694c-0.389,0.299-0.728,0.654-1.019,1.064
		c-0.291,0.411-0.511,0.855-0.66,1.333v7.147h-1.523V20.581h1.389v2.644c0.239-0.418,0.534-0.803,0.885-1.154
		s0.743-0.653,1.176-0.907s0.892-0.448,1.377-0.582s0.99-0.202,1.513-0.202c0.657,0,1.206,0.12,1.646,0.358s0.796,0.575,1.065,1.008
		s0.463,0.963,0.582,1.591C174.94,23.964,175,24.658,175,25.42V32.253z"/>
</g>
</svg>
